<svg width="313" height="313" viewBox="0 0 313 313" fill="none" xmlns="http://www.w3.org/2000/svg">
<g clip-path="url(#clip0_510_164)">
<rect width="313" height="313" rx="156.5" fill="#737373"/>
<path d="M104.21 225.612C96.7973 211.579 49.1364 202.773 49.1364 202.773C49.1364 202.773 1.47563 211.579 -5.93721 225.612C-11.4166 245.086 -16 269.83 -16 269.83H49.1364H114.273C114.273 269.83 111.177 243.299 104.21 225.612Z" fill="#F1C9A5"/>
<path d="M49.1365 202.773C49.1365 202.773 96.7973 211.579 104.21 225.612C111.178 243.299 114.273 269.83 114.273 269.83H49.1365V202.773Z" fill="#E4B692"/>
<path d="M62.1113 174.243H36.1616V217.672H62.1113V174.243Z" fill="#F1C9A5"/>
<path d="M62.1113 174.243H49.1365V217.672H62.1113V174.243Z" fill="#E4B692"/>
<path opacity="0.1" d="M36.1616 194.367C38.4954 201.067 47.9132 204.907 54.8303 204.907C57.3325 204.907 59.7664 204.487 62.1113 203.72V174.243H36.1616V194.367Z" fill="#DDAC8C"/>
<path d="M82.499 146.84C82.499 119.714 67.5621 104.29 49.1365 104.29C30.7108 104.29 15.7739 119.714 15.7739 146.84C15.7739 183.326 30.7108 195.957 49.1365 195.957C67.5606 195.957 82.499 181.805 82.499 146.84Z" fill="#F1C9A5"/>
<path d="M77.4199 165.65C71.3718 165.018 67.2888 158.501 68.3135 151.104C69.3255 143.7 75.0528 138.204 81.1041 138.833C87.1491 139.462 91.2257 145.976 90.2057 153.379C89.1905 160.784 83.4681 166.276 77.4199 165.65Z" fill="#E4B692"/>
<path d="M8.30387 153.38C7.28234 145.977 11.3605 139.463 17.4023 138.834C23.4552 138.205 29.1841 143.701 30.1992 151.105C31.2208 158.502 27.1331 165.019 21.0897 165.651C15.0399 166.276 9.31746 160.784 8.30387 153.38Z" fill="#F1C9A5"/>
<path d="M82.499 146.84C82.499 119.714 67.5621 104.29 49.1365 104.29V195.957C67.5605 195.957 82.499 181.805 82.499 146.84Z" fill="#E4B692"/>
<path d="M79.1469 169.576C77.3517 174.621 74.3157 180.687 68.8299 180.687C61.9731 180.687 57.0688 175.114 49.2032 175.114C49.1809 175.114 49.1603 175.117 49.138 175.117C49.1142 175.117 49.0935 175.114 49.0697 175.114C41.2057 175.114 36.303 180.687 29.443 180.687C23.9572 180.687 20.9228 174.621 19.1276 169.576L17.5739 159.856V171.487C17.5739 171.487 20.1809 185.185 25.1837 188.494C29.2587 192.114 42.5608 198.317 49.0665 198.317H49.0681C49.0904 198.317 49.1126 198.313 49.1364 198.313C49.1587 198.313 49.1809 198.317 49.2016 198.317H49.2048C55.712 198.317 69.0142 192.116 73.0876 188.494C78.0904 185.185 80.6974 171.487 80.6974 171.487V159.856L79.1469 169.576Z" fill="#303030"/>
<path d="M32.981 109.48C32.981 109.48 39.1769 134.561 73.7024 147.248C70.4551 141.642 69.8657 134.855 69.8657 134.855C69.8657 134.855 75.4722 140.757 84.6183 145.478C89.6354 135.447 95.5374 120.398 82.2591 112.136C68.9808 103.874 37.4071 89.1178 32.981 109.48Z" fill="#303030"/>
<path d="M21.4742 145.183C21.4742 145.183 24.0367 116.55 34.7048 110.216C25.6048 106.245 11.7371 118.331 13.2114 125.707C14.6873 133.085 21.4742 145.183 21.4742 145.183Z" fill="#303030"/>
<path d="M104.21 225.612C99.8793 217.418 81.8381 211.01 67.5669 207.094C67.0077 216.801 58.9848 224.506 49.1364 224.506C39.2897 224.506 31.2652 216.801 30.7076 207.094C16.4364 211.01 -1.60643 217.418 -5.93721 225.612C-11.4166 245.086 -16 269.83 -16 269.83H49.1364H114.273C114.273 269.83 111.177 243.299 104.21 225.612Z" fill="#FB621E"/>
<path opacity="0.2" d="M29.6384 211.86C30.2294 221.567 38.7178 229.272 49.1349 229.272C59.5536 229.272 68.0404 221.567 68.6314 211.86C81.7111 215.252 97.768 220.517 104.809 227.191C104.612 226.657 104.412 226.13 104.207 225.612C99.8762 217.418 81.835 211.01 67.5638 207.094C67.0045 216.801 58.9816 224.506 49.1333 224.506C39.2866 224.506 31.2621 216.801 30.7045 207.094C16.4332 211.01 -1.60958 217.418 -5.94036 225.612C-6.06905 226.071 -6.19773 226.537 -6.32642 227.001C0.822709 220.419 16.6842 215.219 29.6384 211.86Z" fill="#E53D0C"/>
<path d="M25.2791 208.659C27.087 220.225 37.064 229.083 49.1365 229.083C61.209 229.083 71.186 220.225 72.9939 208.659C71.1494 208.1 69.3288 207.579 67.5669 207.096C67.0077 216.803 58.9848 224.508 49.1365 224.508C39.2898 224.508 31.2653 216.803 30.7076 207.096C28.9442 207.579 27.1235 208.1 25.2791 208.659Z" fill="#E53D0C"/>
<path d="M54.565 183.856C54.565 183.856 53.7707 180.32 49.1365 180.32C44.8994 180.32 43.7079 183.856 43.7079 183.856H54.565Z" fill="white"/>
<path d="M289.287 214.436C302.059 214.436 312.412 203.152 312.412 189.233C312.412 175.314 302.059 164.03 289.287 164.03C276.515 164.03 266.162 175.314 266.162 189.233C266.162 203.152 276.515 214.436 289.287 214.436Z" fill="#5A3017"/>
<path d="M320.68 237.385C313.731 224.229 269.057 215.974 269.057 215.974C269.057 215.974 224.381 224.229 217.432 237.385C212.298 255.638 208 278.83 208 278.83H269.057H330.112C330.114 278.83 327.213 253.962 320.68 237.385Z" fill="#F1C9A5"/>
<path d="M269.058 215.974C269.058 215.974 313.732 224.229 320.682 237.385C327.213 253.963 330.114 278.83 330.114 278.83H269.058V215.974Z" fill="#E4B692"/>
<path d="M281.219 189.233H256.895V229.941H281.219V189.233Z" fill="#F1C9A5"/>
<path d="M281.219 189.233H269.058V229.941H281.219V189.233Z" fill="#E4B692"/>
<path opacity="0.1" d="M256.895 208.095C259.083 214.374 267.91 217.975 274.394 217.975C276.74 217.975 279.022 217.583 281.219 216.862V189.233H256.895V208.095Z" fill="#DDAC8C"/>
<path d="M300.329 163.543C300.329 138.118 286.327 123.658 269.057 123.658C251.785 123.658 237.784 138.118 237.784 163.543C237.784 188.97 251.785 209.586 269.057 209.586C286.329 209.586 300.329 188.97 300.329 163.543Z" fill="#F1C9A5"/>
<path d="M295.57 181.173C289.901 180.542 286.074 174.05 287.033 166.679C287.982 159.302 293.351 153.828 299.021 154.453C304.687 155.081 308.509 161.57 307.553 168.947C306.602 176.324 301.239 181.795 295.57 181.173Z" fill="#E4B692"/>
<path d="M230.782 168.948C229.825 161.572 233.648 155.084 239.311 154.454C244.985 153.83 250.354 159.304 251.305 166.68C252.261 174.051 248.431 180.542 242.765 181.174C237.096 181.795 231.733 176.323 230.782 168.948Z" fill="#F1C9A5"/>
<path d="M300.329 163.543C300.329 138.118 286.327 123.658 269.057 123.658V209.586C286.329 209.586 300.329 188.97 300.329 163.543Z" fill="#E4B692"/>
<path d="M320.68 237.385C318.349 232.969 311.764 229.112 304.051 225.927C300.173 241.653 285.98 253.319 269.057 253.319C252.132 253.319 237.939 241.653 234.061 225.927C226.348 229.111 219.764 232.968 217.432 237.385C212.298 255.638 208 278.83 208 278.83H269.057H330.112C330.114 278.83 327.213 253.962 320.68 237.385Z" fill="#9E1F63"/>
<path d="M310.411 167.939C310.411 167.939 293.527 176.38 281.71 152.742C273.831 153.869 250.192 149.367 245.689 138.111C241.751 154.995 230.635 158.32 238.936 175.254C245.054 187.736 244.001 209.586 244.001 209.586C244.001 209.586 218.424 186.241 222.148 154.407C226.34 118.561 234.998 108.845 246.815 112.22C256.384 99.8387 285.648 101.527 297.468 116.724C309.286 131.92 305.958 138.638 310.411 144.864C318.944 156.794 310.411 167.939 310.411 167.939Z" fill="#5A3017"/>
<path d="M234.061 225.927L294.1 243.183L309.265 232.777L304.053 225.927L236.046 243.183L245.975 251.144L304.55 238.535L279.481 254.62L235.054 234.018" stroke="#9E1F63" stroke-width="1.0637" stroke-miterlimit="10"/>
<path d="M128.487 228.363H97.7361C102.519 242.83 98.1313 249.43 98.1313 249.43L108.764 251.841H117.459L128.092 249.43C128.092 249.43 123.704 242.83 128.487 228.363Z" fill="#E2A379"/>
<path d="M113.151 271.051C130.898 271.051 128.091 249.43 128.091 249.43C128.091 249.43 124.574 256.268 113.032 256.268C101.491 256.268 98.2103 249.43 98.2103 249.43C98.2103 249.43 95.4041 271.051 113.151 271.051Z" fill="#E2A379"/>
<path d="M112.993 248.64C82.4793 248.64 58.0131 257.375 55.1278 268.126C53.8235 272.948 52.361 282.039 51.1357 290.853C68.013 304.647 89.6334 312.947 113.151 312.947C136.668 312.947 158.249 304.647 175.166 290.853C173.901 282.039 172.439 272.908 171.174 268.126C168.21 257.375 143.467 248.64 112.993 248.64Z" fill="#E2A379"/>
<path d="M153.032 278.165H73.1909L78.2106 177.376L147.538 169.273L153.032 278.165Z" fill="#141414"/>
<path d="M130.107 245.28H96.1155V255.161H130.107V245.28Z" fill="#DEE0E2"/>
<path d="M112.993 248.64C82.4793 248.64 58.0131 257.375 55.1278 268.126C53.8235 272.948 52.361 282.039 51.1357 290.853C68.013 304.647 89.6334 312.947 113.151 312.947C136.668 312.947 158.249 304.647 175.166 290.853C173.901 282.039 172.439 272.908 171.174 268.126C168.21 257.375 143.467 248.64 112.993 248.64Z" fill="#F3FAFF"/>
<path d="M131.214 249.747C125.483 249.035 119.356 248.679 112.993 248.679C106.708 248.679 100.661 249.035 95.0089 249.747L113.111 285.715L131.214 249.747Z" fill="#DADDE0"/>
<path d="M81.4912 258.047L96.1156 245.28L108.764 270.537C108.764 270.537 98.8033 273.343 98.6847 273.225L81.4912 258.047Z" fill="#DADDE0"/>
<path d="M144.732 258.047L130.107 245.28L117.459 270.537C117.459 270.537 127.42 273.343 127.538 273.225L144.732 258.047Z" fill="#DADDE0"/>
<path d="M113.111 279.746L98.1709 249.391C98.1709 249.391 101.807 244.49 112.953 244.49C124.099 244.49 128.012 249.43 128.012 249.43L113.111 279.746Z" fill="#E2A379"/>
<path d="M128.487 228.363H97.7361C102.519 242.83 98.1313 249.43 98.1313 249.43C98.1313 249.43 104.613 251.841 113.111 251.841C121.609 251.841 128.092 249.43 128.092 249.43C128.092 249.43 123.704 242.83 128.487 228.363Z" fill="#E2A379"/>
<path d="M144.653 186.111C144.653 149.589 130.542 141.21 113.111 141.21C95.7202 141.21 81.5702 149.589 81.5702 186.111C81.5702 198.482 83.7836 208.166 87.1037 215.636C94.3764 232.079 106.985 237.81 113.111 237.81C119.198 237.81 131.807 232.079 139.119 215.636C142.439 208.166 144.653 198.482 144.653 186.111Z" fill="#F4B382"/>
<path d="M129.159 144.965C122.756 138.206 108.724 140.064 108.724 140.064C81.5307 140.064 78.7244 169.273 78.7244 169.273L78.2106 177.376C78.2106 182.988 81.2145 189.945 84.1394 196.862C84.1394 196.862 83.5465 174.056 97.2222 167.969C110.898 161.882 133.625 163.344 132.637 156.348C132.597 155.993 133.23 149.313 129.159 144.965Z" fill="#141414"/>
<path d="M121.688 140.617C125.878 138.68 135.799 143.621 140.779 151.012C143.427 154.925 146.51 160.894 147.538 169.273C147.538 169.273 147.656 185.992 143.506 196.348C143.506 196.348 131.57 161.842 118.566 147.099C118.605 146.902 119.001 141.882 121.688 140.617Z" fill="#141414"/>
<path d="M78.5663 198.957C80.2659 208.917 82.3607 209.352 85.4042 208.838L82.2026 187.178C79.1592 187.731 76.8667 189.036 78.5663 198.957Z" fill="#F4B382"/>
<path d="M144.099 187.218L140.898 208.877C143.902 209.391 146.036 208.917 147.736 198.996C149.396 189.036 147.103 187.731 144.099 187.218Z" fill="#F4B382"/>
<path d="M123.665 221.13C123.665 221.13 118.052 224.925 113.111 224.925C108.171 224.925 102.558 221.13 102.558 221.13C102.558 220.577 107.024 219.035 108.922 218.759C110.107 218.561 113.111 219.747 113.111 219.747C113.111 219.747 116.076 218.601 117.222 218.759C119.159 219.035 123.665 221.13 123.665 221.13Z" fill="#CC785E"/>
<path d="M123.665 221.13C123.665 221.13 118.052 226.466 113.111 226.466C108.171 226.466 102.558 221.13 102.558 221.13C102.558 221.13 105.127 221.723 110.305 221.407C111.175 221.367 112.321 222.039 113.072 222.039C113.744 222.039 114.732 221.328 115.483 221.367C120.937 221.684 123.665 221.13 123.665 221.13Z" fill="#C16952"/>
<path d="M139.159 182.237H87.0642C85.167 182.237 83.665 183.779 83.665 185.637V203.858C83.665 205.755 85.2065 207.257 87.0642 207.257H105.285C109.277 207.257 109.475 194.806 113.072 194.806C116.669 194.806 116.945 207.257 120.858 207.257H139.079C140.977 207.257 142.479 205.715 142.479 203.858V185.637C142.558 183.779 141.016 182.237 139.159 182.237Z" fill="#BAE5D2"/>
<path d="M139.159 182.237H87.0642C85.167 182.237 83.665 183.779 83.665 185.637V203.858L142.558 185.637C142.558 183.779 141.016 182.237 139.159 182.237Z" fill="#D1EDDF"/>
<path d="M139.159 207.454H120.937C118.843 207.454 117.775 204.134 116.708 200.933C115.76 198.008 114.771 195.004 113.111 195.004C111.451 195.004 110.503 198.008 109.554 200.893C108.526 204.134 107.459 207.454 105.285 207.454H87.0642C85.088 207.454 83.507 205.873 83.507 203.897V185.676C83.507 183.7 85.088 182.119 87.0642 182.119H139.119C141.095 182.119 142.676 183.7 142.676 185.676V203.897C142.716 205.834 141.095 207.454 139.159 207.454ZM113.111 194.688C114.969 194.688 115.957 197.652 116.945 200.814C117.973 203.937 119.001 207.138 120.898 207.138H139.119C140.937 207.138 142.4 205.676 142.4 203.858V185.637C142.4 183.818 140.937 182.356 139.119 182.356H87.0642C85.2461 182.356 83.7836 183.818 83.7836 185.637V203.858C83.7836 205.676 85.2461 207.138 87.0642 207.138H105.285C107.222 207.138 108.25 203.897 109.277 200.775C110.305 197.652 111.254 194.688 113.111 194.688Z" fill="#E8D3BB"/>
<path d="M139.159 182.237H87.0642C85.167 182.237 83.665 183.779 83.665 185.637V203.858C83.665 205.755 85.2065 207.257 87.0642 207.257H105.285C109.277 207.257 109.475 194.806 113.072 194.806C116.669 194.806 116.945 207.257 120.858 207.257H139.079C140.977 207.257 142.479 205.715 142.479 203.858V185.637C142.558 183.779 141.016 182.237 139.159 182.237Z" stroke="#301E19" stroke-width="3" stroke-miterlimit="10" stroke-linecap="round" stroke-linejoin="round"/>
<path d="M251.101 267.094C243.431 252.579 194.136 243.47 194.136 243.47C194.136 243.47 144.84 252.579 137.17 267.094C131.504 287.237 126.764 312.83 126.764 312.83H194.136H261.507C261.507 312.83 258.306 285.388 251.101 267.094Z" fill="#F1C9A5"/>
<path d="M194.136 243.47C194.136 243.47 243.431 252.579 251.101 267.094C258.306 285.388 261.507 312.83 261.507 312.83H194.136V243.47Z" fill="#E4B692"/>
<path d="M207.556 213.961H180.714V258.88H207.556V213.961Z" fill="#F1C9A5"/>
<path d="M207.557 213.961H194.136V258.88H207.557V213.961Z" fill="#E4B692"/>
<path opacity="0.1" d="M180.716 234.776C183.13 241.705 192.872 245.676 200.026 245.676C202.615 245.676 205.132 245.244 207.557 244.45V213.961H180.716V234.776Z" fill="#DDAC8C"/>
<path d="M228.644 185.617C228.644 157.56 213.193 141.606 194.136 141.606C175.079 141.606 159.627 157.561 159.627 185.617C159.627 223.355 175.079 236.421 194.136 236.421C213.193 236.421 228.644 221.783 228.644 185.617Z" fill="#F1C9A5"/>
<path d="M223.392 205.072C217.137 204.417 212.913 197.677 213.971 190.026C215.019 182.368 220.945 176.683 227.201 177.335C233.453 177.987 237.67 184.722 236.615 192.38C235.565 200.039 229.645 205.72 223.392 205.072Z" fill="#E4B692"/>
<path d="M151.9 192.382C150.843 184.724 155.062 177.988 161.311 177.336C167.572 176.685 173.498 182.371 174.547 190.027C175.604 197.679 171.376 204.419 165.124 205.074C158.87 205.72 152.951 200.039 151.9 192.382Z" fill="#F1C9A5"/>
<path d="M228.644 185.617C228.644 157.56 213.193 141.606 194.136 141.606V236.421C213.193 236.421 228.644 221.783 228.644 185.617Z" fill="#E4B692"/>
<path d="M225.177 209.132C223.322 214.35 220.181 220.626 214.506 220.626C207.415 220.626 202.34 214.862 194.205 214.862C194.18 214.862 194.16 214.865 194.139 214.865C194.114 214.865 194.091 214.862 194.066 214.862C185.931 214.862 180.862 220.626 173.766 220.626C168.093 220.626 164.952 214.35 163.097 209.132L161.492 199.078V211.109C161.492 211.109 164.186 225.277 169.361 228.7C173.576 232.445 187.338 238.859 194.066 238.859C194.091 238.859 194.114 238.856 194.139 238.856C194.16 238.856 194.184 238.859 194.205 238.859H194.208C200.939 238.859 214.699 232.445 218.91 228.7C224.085 225.277 226.782 211.109 226.782 211.109V199.078L225.177 209.132Z" fill="#303030"/>
<path d="M199.751 223.905C199.751 223.905 198.931 220.249 194.136 220.249C189.755 220.249 188.52 223.905 188.52 223.905H199.751Z" fill="white"/>
<path d="M215.088 157.901C215.088 157.901 212.213 166.94 191.672 175.977C171.13 185.014 162.094 187.891 163.738 196.928C154.911 180.811 158.192 136.334 192.492 136.334C219.4 136.334 218.372 152.149 215.088 157.901Z" fill="#303030"/>
<path d="M228.451 180.29C228.451 180.29 216.523 159.339 208.102 158.313C211.802 146.194 216.753 147.016 216.753 147.016C216.753 147.016 230.116 149.469 228.451 180.29Z" fill="#303030"/>
<path d="M251.101 267.094C246.621 258.617 227.96 251.99 213.199 247.94C213.316 245.88 209.621 258.018 209.621 258.018L194.625 291.646L180.598 260.289L175.074 247.94C160.313 251.99 141.652 258.617 137.172 267.094C131.504 287.237 126.764 312.83 126.764 312.83H194.136H261.507C261.507 312.83 258.306 285.388 251.101 267.094Z" fill="#1F3A4D"/>
</g>
<defs>
<clipPath id="clip0_510_164">
<rect width="313" height="313" rx="156.5" fill="white"/>
</clipPath>
</defs>
</svg>
